<?xml version="1.0" encoding="UTF-8"?>
<svg width="752px" height="218px" viewBox="0 0 752 218" version="1.1" xmlns="http://www.w3.org/2000/svg" xmlns:xlink="http://www.w3.org/1999/xlink">
    <!-- Generator: Sketch 63.1 (92452) - https://sketch.com -->
    <title>Combined Shape</title>
    <desc>Created with Sketch.</desc>
    <defs>
        <rect id="path-1" x="0" y="0" width="752" height="218" rx="8"></rect>
    </defs>
    <g id="Page-1" stroke="none" stroke-width="1" fill="none" fill-rule="evenodd">
        <g id="Banner-2">
            <g id="Combined-Shape">
                <mask id="mask-2" fill="white">
                    <use xlink:href="#path-1"></use>
                </mask>
                <use id="Mask" fill="#E6282B" xlink:href="#path-1"></use>
                <path d="M137.5,-156 C291.865311,-156 417,-30.8629808 417,123.501501 C417,277.865983 291.865311,403 137.5,403 C-16.8653113,403 -142,277.865983 -142,123.501501 C-142,-30.8629808 -16.8653113,-156 137.5,-156 Z M209.431052,-47.8037396 C181.458533,-56.508323 149.609615,-57.07882 124.006172,-54.8568843 C93.1871569,-52.1845561 63.1188,-43.2157425 36.6716173,-25.5873847 C6.03576301,-5.16659415 -15.3459795,21.4365825 -20.5795671,59.1554431 C-24.513015,87.5241579 -15.2829242,111.430985 0.600999087,134.620188 C2.76289413,137.77894 7.72023957,142.904405 11.2933716,142.904405 C14.7403932,142.904405 17.0974593,139.391345 16.0705592,136.10348 C14.2809905,130.377492 12.074056,122.633745 11.4164796,120.219642 C-0.437911586,76.8979003 14.1969168,33.1678027 49.4057797,6.59465223 C89.7341301,-23.8368597 170.13861,-28.1215925 213.490611,-2.1489652 C245.913031,17.2779595 262.481554,53.6426404 250.891395,88.3168485 C248.360176,95.8894457 244.198528,100.777704 243.456878,108.17615 C242.862357,114.091303 244.489784,133.50922 245.171381,146.369424 C245.456631,151.726091 246.087184,157.09777 246.069168,162.463445 C246.051152,169.291393 242.117704,173.60315 234.953424,173.60315 C220.796014,173.60315 219.886217,179.617389 217.970538,189.336857 C215.091014,203.923565 213.094263,218.987689 207.818639,232.733664 C196.856029,261.309559 164.586743,282.526043 140.037224,266.903433 C142.910743,263.873793 145.526035,260.970264 147.480749,258.760339 C150.126068,255.763728 152.624257,252.641007 154.89725,249.356146 C167.343159,231.394498 172.369565,214.102433 173.885895,207.62579 C179.317656,184.430583 171.474781,157.073749 146.558941,147.36329 L146.558941,147.36329 L143.072885,146.003105 L146.378783,144.249577 C150.00296,142.321898 153.2428,140.43025 156.290471,138.463536 C196.2525,112.677071 206.128157,90.7789935 210.346855,81.4258451 C213.442569,74.5678704 218.396911,53.9158784 207.377252,36.7138921 C200.741435,25.84142 188.661847,15.6805679 169.838347,11.1045813 C150.600483,6.42950836 129.819267,6.92794259 111.007778,10.2758593 C100.099216,12.2185518 75.9940861,18.9504166 60.1281785,33.9604933 C43.0371972,50.1325824 34.7859644,74.1084702 43.9860289,86.2090121 C44.9799001,87.5181527 46.4601977,87.4070559 47.0517162,87.3079696 C48.6190901,87.0257237 49.9432508,85.842693 50.4206693,84.2903406 C58.0563625,59.3356001 77.3122415,42.2807419 106.095472,34.963367 C129.512999,29.0121823 150.969807,31.2941704 160.166869,33.212842 C172.444631,35.7740733 181.659709,42.9563305 184.80947,52.8109158 C187.803094,62.1700695 187.974244,78.3031245 166.067041,102.008777 C140.355503,129.82501 107.362583,141.694351 89.4428748,146.291356 L89.4428748,146.291356 L85.956819,147.186135 L87.4551324,143.916287 C91.1994145,135.734158 94.8956545,127.900334 98.4717892,120.327736 C100.354439,116.33726 102.189048,112.448872 103.94859,108.683592 C104.597159,107.380457 106.038422,104.455909 107.827991,100.831751 C111.971623,92.4364375 117.967879,80.2818484 120.009669,76.2583431 C122.847156,70.6524593 121.51699,64.2598901 116.847897,61.0530963 L116.847897,61.0530963 L110.674486,56.8164053 C108.599667,55.3931654 105.984374,54.9607887 103.480179,55.6273695 C101.027029,56.2849423 99.0152656,57.9303758 97.9553365,60.1463064 C95.1959177,65.9173341 52.7266907,158.460958 48.5590374,167.778075 C47.1568083,170.918811 47.4240425,174.497929 49.2766665,177.359422 C52.3453564,182.094547 56.2247569,186.337244 60.7977655,189.961401 C61.878713,190.823152 63.2629264,191.135424 64.5930923,190.802134 C65.8812215,190.483856 66.9321427,189.601087 67.4696138,188.382025 C70.3551431,181.842328 76.3423914,168.420635 76.3423914,168.420635 L76.3423914,168.420635 L77.0029704,168.165412 C88.1787667,163.83564 100.291384,161.511616 113.004528,161.256393 C126.420288,160.96514 136.088763,164.406137 141.679664,171.423251 C144.610233,175.101455 148.42958,182.60199 146.393796,192.997046 C144.718327,201.542491 140.63775,211.661306 135.284058,221.611975 C134.4193,223.245398 132.305447,226.896579 132.14931,227.163812 C126.92473,235.907429 121.123645,243.167754 115.241489,249.203012 C113.319804,247.464498 107.455664,242.260964 99.3005157,236.05756 C91.334533,229.998281 77.0720309,221.467849 64.9624161,217.570454 C54.0688672,214.063399 45.6584949,212.327887 32.1256325,213.492902 C10.4916689,215.357526 -6.90257829,229.031439 -9.8871945,251.091658 C-12.0340764,266.954477 -3.69576731,287.047983 16.3317882,296.211966 C23.0877102,299.013407 32.6961326,302.088086 44.1451684,302.790698 C57.2576624,303.598401 73.0455014,301.448529 87.6292851,297.503091 C101.126116,293.848908 113.728162,286.210253 122.961256,280.547319 L122.961256,280.547319 C124.759832,281.562204 130.110523,285.102288 135.704426,287.696548 C141.784756,290.519007 148.156341,292.398644 150.564452,293.038201 C179.233582,300.685864 217.189853,292.61183 235.13058,259.742194 C245.663813,240.432371 252.765037,219.224895 261.058307,198.729039 C263.328297,193.11715 265.856513,184.745857 268.264624,182.289718 C270.50759,180.001724 273.969625,179.557337 284.15155,179.557337 C292.303696,179.557337 295.579567,174.657068 294.576688,166.610057 C292.778111,152.170478 290.18684,137.736903 288.81764,123.252284 C288.328211,118.072772 288.130037,112.385817 289.718429,107.560614 C311.910883,40.0888323 278.047199,-26.4521381 209.431052,-47.8037396 Z M37.6507756,238.781233 C63.3689193,236.744979 80.3436003,247.846918 96.29277,260.073563 L97.2680341,260.823436 L99.6401133,262.715084 L97.5562867,264.024225 C79.228221,275.557272 63.9568346,280.550881 46.0821663,280.550881 C44.3406397,280.550881 32.5943433,280.679735 24.0908895,275.172937 C18.2477676,271.386639 14.2542671,265.180232 14.2542671,259.544322 C14.2542671,248.413625 22.7877472,239.967266 37.6507756,238.781233 Z" fill="#FFFFFF" opacity="0.173363095" style="mix-blend-mode: overlay;" mask="url(#mask-2)"></path>
            </g>
        </g>
    </g>
</svg>