<?xml version="1.0" encoding="UTF-8"?>
<svg width="109px" height="46px" viewBox="0 0 109 46" version="1.1" xmlns="http://www.w3.org/2000/svg" xmlns:xlink="http://www.w3.org/1999/xlink">
    <!-- Generator: Sketch 63.1 (92452) - https://sketch.com -->
    <title>Group 26 Copy</title>
    <desc>Created with Sketch.</desc>
    <g id="Page-1" stroke="none" stroke-width="1" fill="none" fill-rule="evenodd">
        <g id="Group-26-Copy" fill="#211D1A">
            <path d="M18.499565,1.22983 C21.370615,0.71883 24.541965,0.64288 27.477765,1.35618 C30.350215,2.05443 32.194015,3.60493 33.206565,5.26463 C34.888315,7.88998 34.131965,11.04138 33.659815,12.08823 C33.016165,13.51518 31.508365,16.85698 25.410315,20.79238 C24.945165,21.09268 24.450265,21.38143 23.897265,21.67508 L23.897265,21.67508 L23.393265,21.94318 L23.924915,22.15038 C27.727315,23.63263 28.923965,27.76438 28.095165,31.30393 C27.864165,32.29233 27.097315,34.97438 25.197865,37.71558 C24.850665,38.21713 24.469515,38.69348 24.065615,39.15058 C23.767415,39.48798 23.368415,39.93108 22.929865,40.39343 L22.9745683,40.3462533 C23.278262,40.4919834 23.5968817,40.6044142 23.9281,40.665275 C24.6036,40.789175 25.2973,40.746825 25.9175,40.413275 C27.6983,39.454975 29.11125,36.962975 29.73285,35.709975 C29.9761,35.219975 30.5361,34.978475 31.06075,35.134575 C31.40095,35.235725 31.766,35.403025 32.0425,35.679175 C32.0495,35.686525 32.0565,35.693175 32.0635,35.700175 C32.816,36.460725 33.04385,37.601375 32.6627,38.600975 C32.4562,39.143125 32.1251,39.772425 31.5945,40.407325 C29.6996,42.677075 25.84155,44.932825 20.93875,42.829325 C20.7169365,42.7343525 20.5021224,42.6210541 20.2975308,42.4918855 L20.0355515,42.6525086 C18.6579734,43.492778 16.854425,44.54275 14.931665,45.06313 C12.706015,45.66548 10.296965,45.99378 8.295665,45.87058 C6.548465,45.76313 5.081965,45.29378 4.051565,44.86608 C0.994665,43.46783 -0.277235,40.40113 0.050015,37.98018 C0.505365,34.61423 3.159765,32.52683 6.461665,32.24263 C8.526665,32.06483 9.810115,32.32943 11.472965,32.86493 C13.320615,33.45958 15.497615,34.76158 16.713165,35.68663 C17.943765,36.62218 18.842215,37.41773 19.145315,37.69178 C20.043065,36.77093 20.927865,35.66318 21.725165,34.33003 C21.750365,34.28768 22.071665,33.73188 22.202565,33.48583 C23.020515,31.96578 23.643865,30.42018 23.900065,29.11433 C24.210865,27.52813 23.628115,26.38398 23.180465,25.82258 C22.327165,24.75158 20.851565,24.22623 18.804415,24.27033 C16.864015,24.30988 15.015315,24.66443 13.310115,25.32523 L13.310115,25.32523 L13.209665,25.36408 C13.209665,25.36408 12.295815,27.41263 11.855165,28.41048 C11.773265,28.59633 11.612965,28.73108 11.416265,28.77938 C11.213265,28.83083 11.002215,28.78288 10.837015,28.65163 C10.139115,28.09828 9.547265,27.45078 9.078965,26.72803 C8.796515,26.29193 8.755215,25.74523 8.969765,25.26573 C9.605365,23.84403 16.086665,9.72118 16.507715,8.84058 C16.669415,8.50248 16.976715,8.25118 17.350865,8.15108 C17.733065,8.04923 18.132065,8.11468 18.448815,8.33238 L18.448815,8.33238 L19.390665,8.97883 C20.103265,9.46813 20.306265,10.44428 19.873315,11.29898 C19.561815,11.91323 18.646565,13.76823 18.014465,15.04958 C17.741115,15.60258 17.521315,16.04883 17.422265,16.24798 C17.153815,16.82268 16.874165,17.41558 16.586465,18.02458 C16.040815,19.18028 15.476965,20.37588 14.905415,21.62433 L14.905415,21.62433 L14.676865,22.12378 L15.208515,21.98693 C17.943415,21.28518 22.978165,19.47393 26.902015,15.22878 C30.245565,11.61153 30.219665,9.14928 29.762215,7.72093 C29.281315,6.21698 27.875365,5.12113 26.001815,4.72983 C24.598315,4.43723 21.324065,4.08898 17.750215,4.99758 C13.357365,6.11373 10.418765,8.71703 9.253265,12.52538 C9.180465,12.76233 8.978865,12.94258 8.739465,12.98528 C8.649165,13.00068 8.423415,13.01783 8.271865,12.81798 C6.868015,10.97138 8.126615,7.31213 10.735165,4.84428 C13.156115,2.55353 16.834965,1.52628 18.499565,1.22983 Z M16.403065,39.46558 C13.925065,37.55528 11.309515,35.78463 7.304815,36.10173 C5.036465,36.28268 3.734115,37.57208 3.734115,39.27028 C3.734115,40.13058 4.343465,41.07768 5.235615,41.65518 C6.42024326,42.4227757 8.01744411,42.473216 8.4887285,42.4761841 L8.591415,42.4763189 C11.319315,42.4763189 13.649965,41.71398 16.446815,39.95418 L16.446815,39.95418 L16.764265,39.75468 Z M38.1458,37.18155 C53.26195,33.93005 75.3501,31.40795 103.2549,34.3217 C104.0767,34.40745 104.78475,34.87295 105.11095,35.546 L105.11095,35.546 L105.25585,35.84525 C105.5019,36.35345 105.0497,36.91135 104.42775,36.86655 C86.1553,35.55545 60.4485,35.56385 37.92635,42.3374 C37.24875,42.5411 36.50745,42.25235 36.18475,41.62305 C36.0836,41.42565 36.00065,41.2321 35.9345,41.04275 C35.34545,39.36625 36.4084,37.555 38.1458,37.18155 Z M67.15541,9.937725 C67.47776,9.309125 68.28451,9.118025 68.85571,9.533475 L68.85571,9.533475 L69.53751,10.030125 C70.16086,10.484075 70.34006,11.335275 69.95261,12.002025 C69.58651,12.632375 69.17211,13.363175 68.71046,14.195825 C67.20441,16.911475 65.77606,19.622575 64.42156,22.327375 C64.39741,22.349775 64.38551,22.371125 64.38516,22.392475 C64.38341,22.476125 64.42926,22.514625 64.52271,22.509025 C64.59271,22.504475 64.66306,22.465975 64.73481,22.394225 C65.76696,20.983725 66.82676,19.666325 67.91281,18.442375 C68.99851,17.219125 70.02366,16.205875 70.98266,15.401225 C71.94166,14.596925 72.65286,14.187775 73.10751,14.170275 C73.39556,14.159425 73.68081,14.227675 73.96151,14.373975 C74.24221,14.520975 74.48546,14.714175 74.68916,14.953575 C74.89321,15.193675 75.05281,15.468075 75.16901,15.777825 C75.28486,16.087925 75.33421,16.410975 75.31741,16.747675 C75.30516,16.994775 75.13156,17.358425 74.79941,17.840025 C73.65106,19.469975 72.50516,21.351925 71.36871,23.486225 C70.23331,25.620525 69.67016,26.961025 69.64986,27.499675 C69.64216,27.724725 69.74191,27.831475 69.95016,27.821325 C70.06531,27.815725 70.23576,27.723675 70.46186,27.544475 C70.68831,27.365625 70.94066,27.113625 71.21961,26.786725 C71.49856,26.460875 71.79116,26.100725 72.09846,25.706625 C72.40541,25.312525 72.73826,24.872925 73.09876,24.388525 C73.45786,23.903775 73.78896,23.443175 74.09101,23.006375 C74.39236,22.570275 74.71436,22.105475 75.05631,21.611975 C75.07381,21.586775 75.08676,21.568225 75.10391,21.543375 C75.17146,21.401275 75.23726,21.260575 75.31006,21.116375 C76.27781,19.202925 77.50736,17.525725 79.00466,16.092825 C80.50091,14.660275 81.89986,13.938225 83.17736,13.924925 C83.73176,13.919325 84.28336,14.043925 84.82971,14.298025 C85.37606,14.552125 85.82791,14.937125 86.18281,15.451275 C86.53806,15.965425 86.68926,16.536625 86.63781,17.163125 C86.51391,18.687025 85.61931,20.123775 83.98306,21.491575 C82.34611,22.860425 80.72036,23.562525 79.07956,23.599275 C78.84506,23.604525 78.50766,23.567425 78.06806,23.488675 C77.97356,23.491125 77.91266,23.538025 77.88396,23.627975 C77.47411,24.646475 77.25151,25.503975 77.21196,26.199075 C77.14756,27.343225 77.58891,27.901125 78.53846,27.877675 C79.27941,27.860175 80.18556,27.504575 81.26636,26.815075 C82.34611,26.125925 83.39751,25.206825 84.42336,24.057425 C85.33441,23.024925 86.21851,21.933975 87.07706,20.785625 C88.10781,19.266275 89.45041,17.224375 90.19836,16.066575 C90.17281,16.028775 90.14236,15.993425 90.12346,15.950725 C90.02616,15.729525 89.98696,15.450225 90.00551,15.113875 C90.05941,14.149625 90.45981,13.326425 91.21476,12.648475 C91.96866,11.970875 92.70121,11.626125 93.40751,11.614575 C94.06481,11.603375 94.37246,11.913475 94.33011,12.541025 C94.28986,13.146525 93.94651,13.912325 93.30811,14.840875 C93.25666,14.887075 93.23041,14.921375 93.22901,14.943075 C93.22481,15.010625 93.26961,15.055075 93.36516,15.075375 C94.61781,15.435525 95.60621,15.842925 96.33106,16.290925 C97.05486,16.739275 97.38911,17.307325 97.33661,17.991925 C97.29951,18.478075 97.03561,18.986975 96.54876,19.520375 C96.38181,19.749625 95.96461,20.321525 95.30381,21.238175 C94.64266,22.154825 94.08301,22.940225 93.62031,23.592275 C93.15796,24.244675 92.73306,24.945375 92.34491,25.695775 C91.95606,26.445825 91.75376,26.981325 91.73381,27.301575 C91.71806,27.553225 91.82621,27.676075 92.05896,27.671175 C92.31516,27.665925 92.61931,27.542025 92.97316,27.300175 C93.32666,27.059025 93.71726,26.705175 94.14671,26.239675 C94.26921,26.107025 95.19741,24.998225 95.29961,24.864175 C95.53236,24.556875 95.96496,24.033625 96.42556,23.413425 C97.91621,21.405125 100.10336,18.426275 100.10441,18.426275 C101.25101,16.975875 102.91736,14.924525 103.81651,14.339675 C104.03491,14.173425 104.27781,14.034475 104.55361,13.943475 C105.61796,13.657875 106.38411,13.793325 107.23776,14.282275 C107.60316,14.491575 107.86181,14.728525 108.04486,14.955325 C108.36896,15.356425 108.24681,15.946525 107.78586,16.189075 C106.95426,16.626225 105.68026,17.584175 105.72156,19.335225 C105.78246,21.928375 106.49646,26.607875 104.90921,28.770875 C103.32196,30.933875 100.22411,31.012975 100.22411,31.012975 C100.22411,31.012975 97.44021,31.127775 95.80221,28.718375 C95.69616,28.562275 95.65311,28.380975 95.67026,28.205275 C95.71891,27.706175 96.37761,27.553925 96.68141,27.952575 C97.05381,28.441875 97.71531,29.007825 98.80031,29.061025 C100.74176,29.156925 102.27931,27.968675 102.42911,25.881975 C102.57926,23.795275 102.17921,20.186775 102.19426,19.023725 C102.19986,18.620175 102.21421,18.280675 102.23031,18.006275 C100.53071,20.063925 98.00441,23.641975 97.57601,24.251325 C97.14236,24.900925 94.85966,27.692875 94.79246,27.766725 C94.03821,28.596575 93.27661,29.266125 92.50696,29.776075 C91.73696,30.285325 91.04396,30.548525 90.42376,30.564625 C89.93901,30.577225 89.51446,30.449475 89.14906,30.180325 C88.78366,29.911175 88.51381,29.567125 88.33951,29.146775 C88.16521,28.727125 88.09101,28.270025 88.11656,27.776525 C88.15646,27.013525 88.45431,26.084975 89.01571,24.992625 C89.57746,23.900975 90.17316,22.893675 90.80421,21.971425 C91.43491,21.049875 92.04671,20.163325 92.63961,19.312475 C93.23216,18.461275 93.54261,17.868025 93.56466,17.530275 C93.58706,17.192875 93.39841,16.965375 92.99836,16.849175 C92.59831,16.732975 92.19406,16.698675 91.78631,16.687475 C91.73801,16.686425 91.67956,16.683275 91.61481,16.677675 C90.15986,18.796225 89.01571,20.493025 88.15506,21.668325 C87.70706,22.336125 87.05326,23.217775 86.19611,24.317825 C84.93471,25.977875 83.54101,27.392225 82.01291,28.566825 C80.48481,29.742125 78.99521,30.349375 77.52451,30.389625 C76.37476,30.421125 75.44971,30.054325 74.74096,29.283975 C74.03221,28.514325 73.70496,27.479725 73.76586,26.177725 C73.76936,26.103175 73.77916,26.025825 73.78476,25.950575 C71.48316,29.070825 69.74436,30.688175 68.47106,30.754675 C67.89811,30.785475 67.38011,30.545375 66.91321,30.034375 C66.44666,29.523375 66.22406,28.785575 66.24891,27.819575 C66.26571,27.168225 66.41761,26.419225 66.70706,25.572575 C66.99651,24.726625 67.47216,23.712325 68.14066,22.533525 C68.80916,21.354725 69.29671,20.523475 69.59631,20.038375 C69.89626,19.552925 70.45731,18.685275 71.28961,17.438225 C71.31411,17.415475 71.32741,17.381175 71.32916,17.335675 C71.33196,17.268475 71.29731,17.236275 71.22591,17.239425 C71.17796,17.241525 71.11741,17.277575 71.04391,17.348275 C69.54206,18.715025 67.69686,20.762175 65.55521,23.504425 C63.41391,26.247725 61.78326,28.683375 60.61986,30.792475 C60.54811,31.112375 60.32936,31.285975 59.96501,31.314325 C59.53101,31.347925 59.11101,31.185875 58.70116,30.825725 C58.29166,30.466625 58.08691,30.017575 58.08831,29.478225 C58.08866,29.253875 58.12331,29.026375 58.19331,28.795375 C58.21291,28.743925 58.23671,28.684775 58.25841,28.629475 C57.67671,29.341375 57.06246,30.010225 56.38836,30.601375 C55.53331,31.350725 54.77976,31.758125 54.11966,31.821125 C53.39131,31.890425 52.79141,31.663275 52.31681,31.137225 C51.84116,30.611175 51.59441,29.854825 51.57831,28.866075 C51.56991,28.327075 51.67246,27.607825 51.89016,26.708325 C51.91221,26.661425 51.92376,26.626425 51.92341,26.603675 C51.92271,26.558875 51.88771,26.539625 51.81841,26.546975 C51.79531,26.549075 51.77221,26.563075 51.74981,26.587575 C51.60071,26.638675 51.45161,26.678925 51.30251,26.710425 C50.42926,27.508775 49.55251,27.962725 48.66386,28.060375 C48.52596,28.075425 48.43496,28.119525 48.39086,28.191975 C47.52671,29.549275 46.60341,30.674525 45.61851,31.570525 C44.63326,32.466525 43.67076,32.975775 42.72121,33.097925 C41.77166,33.220775 40.92956,32.938325 40.18896,32.248125 C39.44836,31.558275 39.04271,30.598225 38.97796,29.363775 C38.97376,29.278375 38.98146,29.182475 38.98041,29.093925 C38.69971,29.517425 38.39241,29.968925 38.03856,30.471875 C37.14606,31.739575 36.36731,32.683175 35.69286,33.301625 C35.01806,33.920425 34.38596,34.275675 33.79201,34.368075 C33.43221,34.424075 33.09516,34.392225 32.77946,34.272175 C32.46411,34.152475 32.19461,33.969075 31.97201,33.721275 C31.74871,33.474175 31.56741,33.185775 31.42881,32.856425 C31.28986,32.527775 31.20691,32.183725 31.17996,31.825675 C31.12641,31.107475 31.29406,30.171575 31.69166,29.018675 C32.08891,27.865425 32.54006,26.789525 33.04511,25.790625 C33.55016,24.791725 34.03841,23.836225 34.50916,22.923075 C34.97956,22.010625 35.20741,21.386225 35.18641,21.049875 C35.17276,20.825875 35.03871,20.658575 34.78391,20.548675 C34.52876,20.438775 34.28306,20.384875 34.04681,20.385925 C33.81091,20.386975 33.57536,20.405525 33.34156,20.440525 C33.24776,20.454525 33.17076,20.534325 33.10951,20.679575 C32.64121,21.683375 32.33146,22.579725 31.58141,24.320275 C31.34481,24.870475 30.74421,25.169725 30.16286,25.026575 L30.16286,25.026575 L30.08446,25.006975 C29.73306,24.920525 29.55246,24.529575 29.71381,24.205475 C30.57516,22.473675 31.15161,21.439425 31.68956,20.149675 C31.70951,20.101725 31.71861,20.060075 31.71616,20.026825 C31.71371,19.993225 31.69901,19.956125 31.67276,19.914475 C31.51631,19.712525 31.42566,19.443025 31.40151,19.107025 C31.35496,18.457075 31.49391,17.829525 31.82151,17.223675 C32.14876,16.618525 32.54041,16.145675 32.99681,15.805125 C33.45286,15.465625 33.89596,15.264025 34.32331,15.202075 C34.96486,15.108275 35.30471,15.377425 35.34251,16.004975 C35.37891,16.610475 35.12761,17.415475 34.59736,18.420675 C34.51021,18.546675 34.55011,18.619825 34.71776,18.640475 C35.96481,18.843475 36.97666,19.125925 37.75296,19.481175 C38.52961,19.838175 38.93351,20.365625 38.96921,21.061075 C38.99301,21.531825 38.78826,22.054375 38.35881,22.629775 C38.23526,22.877225 37.92271,23.499525 37.42711,24.497725 C36.93151,25.495925 36.51956,26.335925 36.18811,27.016675 C35.85596,27.697775 35.51051,28.409325 35.15246,29.152725 C34.79406,29.895425 34.62956,30.468375 34.65581,30.869825 C34.67611,31.185875 34.80001,31.325875 35.02681,31.291575 C35.23086,31.260775 35.47411,31.122875 35.75726,30.877175 C36.04006,30.631475 36.31236,30.325225 36.57486,29.957375 C36.83701,29.589175 37.15236,29.149225 37.52126,28.636825 C37.89051,28.124775 38.20761,27.627075 38.47291,27.143025 C38.73821,26.658975 39.04096,26.108075 39.38256,25.490675 C39.61006,25.079425 39.80921,24.721375 39.98491,24.406725 C40.37831,23.338525 40.84766,22.296225 41.39716,21.283325 C42.14721,19.900125 43.06736,18.690875 44.15761,17.658375 C45.24751,16.626925 46.31046,16.054675 47.33211,15.942325 C48.71076,15.791125 49.72681,16.384725 50.36801,17.714725 C50.39286,17.779825 50.44151,17.842475 50.51361,17.902325 C51.04211,18.276825 51.31371,18.992225 51.33086,20.047825 C51.35501,21.486325 50.89896,23.218125 49.98826,25.249525 C49.96551,25.274725 49.95501,25.298525 49.95536,25.320925 C49.93366,25.412975 49.96936,25.454625 50.06176,25.444475 C50.08486,25.442025 50.10831,25.439925 50.13176,25.437125 C50.59061,25.208925 51.08131,24.764425 51.60666,24.104325 C51.79531,23.867025 51.96331,23.646175 52.12116,23.432675 C52.26536,23.174725 52.41341,22.908725 52.56951,22.625925 C53.55476,20.843025 54.47246,19.213425 55.31561,17.735375 C55.33871,17.711575 55.35096,17.676575 55.35096,17.631775 C55.35061,17.565625 55.29181,17.525725 55.17561,17.513475 C54.87356,17.451175 54.60616,17.296825 54.37236,17.049375 C54.13821,16.803325 54.01991,16.568475 54.01816,16.345175 C54.01571,16.099825 54.14206,15.931825 54.39686,15.841875 C54.81371,15.714825 55.52211,15.595825 56.52136,15.488725 C56.61446,15.480675 56.68341,15.409625 56.73031,15.275575 C57.40091,14.065625 57.99031,13.034175 58.49396,12.179125 C58.83836,11.593575 59.61221,11.434675 60.16136,11.834375 L60.16136,11.834375 L60.67551,12.208875 C61.31391,12.673325 61.48541,13.552525 61.06681,14.221375 C60.92646,14.445375 60.77771,14.685125 60.62161,14.939925 C60.59711,14.991025 60.58521,15.029175 60.58486,15.054025 C60.58416,15.153425 60.64296,15.198925 60.76266,15.189825 C61.71711,15.166025 62.31386,15.159725 62.55291,15.165675 C62.93406,15.206975 63.12306,15.352225 63.11886,15.598975 C63.11396,15.891225 62.89976,16.202375 62.47941,16.533825 C62.05836,16.865625 61.56311,17.085075 60.99191,17.193925 C60.70666,17.237325 60.16871,17.298575 59.37981,17.381175 C59.26046,17.390625 59.17646,17.431925 59.12886,17.505075 C58.34766,18.939025 57.62351,20.372275 56.95361,21.803425 C56.28336,23.234925 55.73701,24.551275 55.30861,25.750375 C54.88056,26.950175 54.67126,27.787375 54.67476,28.259875 C54.67791,28.687925 54.85151,28.885675 55.19556,28.853825 C55.67786,28.810075 56.36316,28.259175 57.26301,27.205325 C58.16356,26.151825 59.03086,24.992625 59.86806,23.727025 C60.50366,22.765575 61.16201,21.735525 61.84451,20.638625 C62.15006,19.998825 62.47206,19.329275 62.81506,18.623675 C64.51326,15.136975 65.97136,12.245625 67.15541,9.937725 Z M48.6026597,18.4111776 L48.50006,18.416825 C47.74441,18.498025 46.86836,19.219375 45.88766,20.583675 C44.90696,21.947625 44.08376,23.468025 43.41666,25.141025 C42.74991,26.814025 42.42126,28.149275 42.41706,29.142575 C42.42896,29.953525 42.73066,30.320675 43.32321,30.245775 C44.28186,30.125025 45.38856,28.895125 46.68391,26.559925 C46.72801,26.487125 46.74831,26.405925 46.74621,26.315625 C46.76931,25.547375 46.99296,24.682175 47.42101,23.721075 C47.84976,22.761025 48.35061,21.979475 48.92356,21.377475 C48.99251,21.302575 49.03766,21.230125 49.05971,21.160475 C49.21231,20.649125 49.28196,20.056225 49.26691,19.382125 C49.25186,18.686325 48.99601,18.363625 48.50006,18.416825 Z M83.95121,16.1680594 C83.39996,16.172975 82.62366,16.706725 81.63456,17.773875 C80.64546,18.841725 79.74106,20.102075 78.92311,21.553525 C78.87166,21.621775 78.84436,21.690025 78.84016,21.757225 C78.83176,21.891625 78.95706,21.955675 79.21641,21.950075 C80.15861,21.929425 81.21386,21.221725 82.40176,19.829075 C83.58896,18.437475 84.22176,17.364375 84.27811,16.602425 C84.30016,16.311575 84.19061,16.166325 83.95121,16.1680594 Z M44.2225,2.71201 C44.44965,2.76556 44.6439,2.83101 44.8056,2.90871 C44.9918,3.00076 45.15735,3.10926 45.3019,3.23421 L44.6719,3.89256 C44.58335,3.81206 44.4794,3.74171 44.359,3.68186 C44.25715,3.63146 44.12765,3.58806 43.9705,3.55236 C43.81335,3.51666 43.63695,3.51001 43.44165,3.53241 C43.25685,3.55341 43.10005,3.59541 42.9716,3.65841 C42.84315,3.72106 42.73675,3.79561 42.65345,3.88171 C42.56945,3.96781 42.51135,4.06371 42.47775,4.16941 C42.4445,4.27511 42.43435,4.38116 42.44625,4.48721 C42.4655,4.65521 42.54565,4.78751 42.68705,4.88446 C42.8288,4.98176 42.9989,5.06121 43.19875,5.12351 C43.3986,5.18546 43.61665,5.24706 43.85325,5.30726 C44.08915,5.36851 44.3093,5.44621 44.5123,5.54211 C44.716,5.63766 44.8924,5.76751 45.0415,5.93166 C45.19095,6.09616 45.2809,6.31211 45.3117,6.58056 C45.346,6.88261 45.3257,7.16121 45.2515,7.41601 C45.1766,7.67081 45.0506,7.89516 44.8735,8.08766 C44.69605,8.28121 44.4675,8.44151 44.1882,8.56961 C43.90855,8.69806 43.5813,8.78416 43.2068,8.82721 C42.84875,8.86781 42.5348,8.85556 42.2639,8.79011 C41.993,8.72501 41.7669,8.64311 41.5856,8.54511 C41.3693,8.43416 41.1838,8.29976 41.0298,8.14156 L41.65945,7.48321 C41.76305,7.59591 41.8929,7.69426 42.05005,7.77861 C42.1827,7.84791 42.3437,7.90601 42.53305,7.95256 C42.72205,7.99841 42.9513,8.00646 43.2194,7.97566 C43.3706,7.95816 43.519,7.92141 43.66565,7.86506 C43.8123,7.80871 43.94215,7.73311 44.05625,7.63756 C44.16965,7.54306 44.25855,7.42791 44.32225,7.29316 C44.3863,7.15806 44.408,7.00161 44.3877,6.82241 C44.36845,6.65476 44.2883,6.52386 44.1469,6.42936 C44.00585,6.33521 43.8354,6.25541 43.63555,6.19066 C43.43535,6.12556 43.2173,6.06431 42.9814,6.00621 C42.7455,5.94846 42.52535,5.87041 42.32165,5.77171 C42.1176,5.67336 41.94155,5.54491 41.79315,5.38636 C41.64475,5.22781 41.5548,5.01151 41.5233,4.73746 C41.4932,4.47496 41.51,4.22786 41.57335,3.99686 C41.63705,3.76586 41.74765,3.55936 41.90655,3.37666 C42.0651,3.19431 42.27195,3.04311 42.52675,2.92341 C42.7819,2.80371 43.08535,2.72321 43.4378,2.68296 C43.7339,2.64901 43.9957,2.65881 44.2225,2.71201 Z M52.01553,1.40343 C52.42923,1.41568 52.79918,1.50843 53.12643,1.68203 C53.45298,1.85563 53.72283,2.08838 53.93563,2.38133 C54.14913,2.67393 54.29893,3.01378 54.38608,3.39948 C54.47358,3.78483 54.48198,4.19608 54.41128,4.63288 C54.34058,5.06933 54.19918,5.47638 53.98813,5.85298 C53.77708,6.22993 53.51913,6.55718 53.21358,6.83508 C52.90838,7.11263 52.56573,7.32788 52.18598,7.48013 C51.80588,7.63238 51.40968,7.70308 50.99563,7.69083 C50.58228,7.67858 50.21233,7.58583 49.88508,7.41223 C49.55853,7.23898 49.28868,7.00588 49.07553,6.71293 C48.86273,6.41998 48.71293,6.08048 48.62543,5.69513 C48.53828,5.30943 48.52988,4.89783 48.60058,4.46173 C48.67128,4.02493 48.81233,3.61823 49.02303,3.24128 C49.23443,2.86433 49.49238,2.53673 49.79793,2.25918 C50.10348,1.98198 50.44578,1.76708 50.82588,1.61413 C51.20563,1.46153 51.60183,1.39118 52.01553,1.40343 Z M102.557525,1.33707 L106.715875,1.74657 L106.456175,2.56907 L103.222175,2.25022 L102.741625,3.77237 L105.303275,4.02472 L105.036225,4.84652 L102.473525,4.59417 L101.918075,6.36272 L105.236075,6.68997 L104.977075,7.51247 L100.734725,7.09457 L102.557525,1.33707 Z M94.33158,0.682675 L96.69723,0.859075 C96.93313,0.876575 97.15013,0.934675 97.34893,1.034425 C97.54703,1.133825 97.71573,1.260525 97.85573,1.414875 C97.99468,1.569225 98.09968,1.742475 98.16933,1.933575 C98.23863,2.125025 98.26628,2.324525 98.25088,2.531725 C98.23093,2.795975 98.17353,3.025575 98.07763,3.221575 C97.98208,3.417925 97.87043,3.585925 97.74233,3.725925 C97.61423,3.865575 97.47703,3.979675 97.33003,4.067525 C97.18233,4.155375 97.04933,4.222925 96.93033,4.270525 C96.81063,4.318125 96.71263,4.352075 96.63493,4.371325 C96.55723,4.390925 96.52398,4.400725 96.53518,4.401775 L97.19318,6.820975 L96.20863,6.747475 L95.61153,4.417875 L94.22238,4.314625 L93.57348,6.551825 L92.64808,6.482875 L94.33158,0.682675 Z M51.87378,2.27703 C51.59098,2.26863 51.31588,2.31868 51.04848,2.42753 C50.78143,2.53673 50.53748,2.69213 50.31803,2.89338 C50.09858,3.09428 49.91448,3.33158 49.76503,3.60493 C49.61558,3.87863 49.51548,4.17263 49.46438,4.48693 C49.41328,4.80123 49.41783,5.09838 49.47768,5.37768 C49.53753,5.65733 49.64323,5.90338 49.79583,6.11548 C49.94808,6.32793 50.13918,6.49558 50.36913,6.61913 C50.59838,6.74338 50.85493,6.80918 51.13738,6.81758 C51.42018,6.82598 51.69528,6.77593 51.96303,6.66638 C52.23008,6.55718 52.47368,6.40248 52.69348,6.20088 C52.91258,5.99998 53.09703,5.76233 53.24683,5.48898 C53.39593,5.21563 53.49638,4.92163 53.54713,4.60733 C53.59858,4.29303 53.59403,3.99588 53.53418,3.71623 C53.47433,3.43658 53.36793,3.19088 53.21603,2.97878 C53.06308,2.76633 52.87198,2.59833 52.64273,2.47443 C52.41278,2.35088 52.15623,2.28508 51.87378,2.27703 Z M62.54836,0.47852 L62.44231,1.33462 L59.24611,1.60307 L59.03961,3.27257 L61.56276,3.05977 L61.44796,3.91692 L58.92481,4.12902 L58.60141,6.72777 L57.67566,6.80582 L58.42676,0.82467 L62.54836,0.47852 Z M87.710525,0.200305 L88.639425,0.254205 L89.554325,6.238155 L88.610375,6.193355 L88.381475,4.584055 L85.767675,4.459805 L84.732375,5.974255 L83.734175,5.931205 L87.710525,0.200305 Z M70.600775,0.021875 L70.461125,0.875175 L68.692925,0.966875 L67.883375,6.088425 L66.957275,6.136375 L67.766475,1.015175 L65.998625,1.106875 L66.138275,0.253575 L70.600775,0.021875 Z M74.930415,3.5e-05 L75.357065,4.537785 L77.813015,0.010185 L78.726865,0.030835 L79.154915,4.584685 L81.630115,0.035385 L82.611515,0.073535 L79.332015,5.979785 L78.420265,5.968585 L77.985915,1.488935 L75.550965,5.933235 L74.605615,5.921335 L73.986115,0.004585 L74.930415,3.5e-05 Z M87.930325,1.267105 L86.321725,3.641155 L88.260725,3.733555 L87.930325,1.267105 Z M95.02003,1.580775 L94.46353,3.486175 L96.02943,3.602375 C96.16943,3.613225 96.31363,3.596775 96.46028,3.554425 C96.60728,3.511375 96.74063,3.445225 96.86033,3.355625 C96.98003,3.265675 97.08013,3.154725 97.15993,3.022425 C97.24078,2.889775 97.28698,2.742425 97.29888,2.579675 C97.30728,2.467675 97.29398,2.360575 97.25933,2.259425 C97.22433,2.157925 97.17463,2.066925 97.11058,1.986075 C97.04583,1.905225 96.96498,1.838375 96.86733,1.785875 C96.76933,1.733025 96.66188,1.702575 96.54393,1.693825 L95.02003,1.580775 Z" id="Combined-Shape"></path>
        </g>
    </g>
</svg>