<?xml version="1.0" encoding="UTF-8"?>
<svg width="130px" height="56px" viewBox="0 0 130 56" version="1.1" xmlns="http://www.w3.org/2000/svg" xmlns:xlink="http://www.w3.org/1999/xlink">
    <!-- Generator: Sketch 63.1 (92452) - https://sketch.com -->
    <title>Group 26</title>
    <desc>Created with Sketch.</desc>
    <g id="Page-1" stroke="none" stroke-width="1" fill="none" fill-rule="evenodd">
        <g id="Banner-2" transform="translate(-40.000000, -46.000000)" fill="#FFFFFF">
            <g id="Group-26" transform="translate(40.000000, 46.000000)">
                <path d="M126.13314,42.6552 C125.7417,41.84754 124.89204,41.28894 123.90588,41.18604 C90.42012,37.68954 63.91434,40.71606 45.77496,44.61786 C43.69008,45.066 42.41454,47.2395 43.1214,49.2513 C43.20078,49.47852 43.30032,49.71078 43.4217,49.94766 C43.80894,50.70282 44.6985,51.04932 45.51162,50.80488 C72.5382,42.67662 103.38636,42.66654 125.3133,44.23986 C126.05964,44.29362 126.60228,43.62414 126.30702,43.0143 L126.13314,42.6552 Z" id="Fill-1"></path>
                <path d="M58.871652,25.39257 C58.845192,25.47615 58.791012,25.56309 58.708272,25.65297 C58.020732,26.37537 57.419712,27.31323 56.905212,28.46529 C56.391552,29.61861 56.123172,30.65685 56.095452,31.57875 C56.097972,31.68711 56.073612,31.78455 56.020692,31.87191 C54.466272,34.67415 53.138232,36.15003 51.987852,36.29493 C51.276792,36.38481 50.914752,35.94423 50.900472,34.97109 C50.905512,33.77913 51.299892,32.17683 52.099992,30.16923 C52.900512,28.16163 53.888352,26.33715 55.065192,24.70041 C56.242032,23.06325 57.293292,22.19763 58.200072,22.10019 C58.795212,22.03635 59.102232,22.42359 59.120292,23.25855 C59.138352,24.06747 59.054772,24.77895 58.871652,25.39257 M94.707732,25.86423 C95.689272,24.12249 96.774552,22.61007 97.961472,21.32865 C99.148392,20.04807 100.079952,19.40757 100.741452,19.4016712 C101.028732,19.39959 101.160192,19.57389 101.133732,19.92291 C101.066112,20.83725 100.306752,22.12497 98.882112,23.79489 C97.456632,25.46607 96.190332,26.31531 95.059692,26.34009 C94.748472,26.34681 94.598112,26.26995 94.608192,26.10867 C94.613232,26.02803 94.645992,25.94613 94.707732,25.86423 M129.653832,17.94639 C129.434172,17.67423 129.123792,17.38989 128.685312,17.13873 C127.660932,16.55199 126.741552,16.38945 125.464332,16.73217 C125.133372,16.84137 124.841892,17.00811 124.579812,17.20761 C123.500832,17.90943 121.501212,20.37105 120.125292,22.11153 C120.124032,22.11153 117.499452,25.68615 115.710672,28.09611 C115.157952,28.84035 114.638832,29.46825 114.359532,29.83701 C114.236892,29.99787 113.123052,31.32843 112.976052,31.48761 C112.460712,32.04621 111.991992,32.47083 111.567792,32.76021 C111.143172,33.05043 110.778192,33.19911 110.470752,33.20541 C110.191452,33.21129 110.061672,33.06387 110.080572,32.76189 C110.104512,32.37759 110.347272,31.73499 110.813892,30.83493 C111.279672,29.93445 111.789552,29.09361 112.344372,28.31073 C112.899612,27.52827 113.571192,26.58579 114.364572,25.48581 C115.157532,24.38583 115.658172,23.69955 115.858512,23.42445 C116.442732,22.78437 116.759412,22.17369 116.803932,21.59031 C116.866932,20.76879 116.465832,20.08713 115.597272,19.54911 C114.727452,19.01151 113.541372,18.52263 112.038192,18.09045 C111.923532,18.06609 111.869772,18.01275 111.874812,17.93169 C111.876492,17.90565 111.907992,17.86449 111.969732,17.80905 C112.735812,16.69479 113.147832,15.77583 113.196132,15.04923 C113.246952,14.29617 112.877772,13.92405 112.089012,13.93749 C111.241452,13.95135 110.362392,14.36505 109.457712,15.17817 C108.551772,15.99171 108.071292,16.97955 108.006612,18.13665 C107.984352,18.54027 108.031392,18.87543 108.148152,19.14087 C108.170832,19.19211 108.207372,19.23453 108.238032,19.27989 C107.340492,20.66925 105.729372,23.11953 104.492472,24.94275 C103.462212,26.32077 102.401292,27.62991 101.308032,28.86891 C100.077012,30.24819 98.815332,31.35111 97.519632,32.17809 C96.222672,33.00549 95.135292,33.43221 94.246152,33.45321 C93.106692,33.48135 92.577072,32.81187 92.654352,31.43889 C92.701812,30.60477 92.968932,29.57577 93.460752,28.35357 C93.495192,28.24563 93.568272,28.18935 93.681672,28.18641 C94.209192,28.28091 94.614072,28.32543 94.895472,28.31913 C96.864432,28.27503 98.815332,27.43251 100.779672,25.78989 C102.743172,24.14853 103.816692,22.42443 103.965372,20.59575 C104.027112,19.84395 103.845672,19.15851 103.419372,18.54153 C102.993492,17.92455 102.451272,17.46255 101.795652,17.15763 C101.140032,16.85271 100.478112,16.70319 99.812832,16.70991 C98.279832,16.72587 96.601092,17.59233 94.805592,19.31139 C93.008832,21.03087 91.533372,23.04351 90.372072,25.33965 C90.284712,25.51269 90.205752,25.68153 90.124692,25.85205 C90.104112,25.88187 90.088572,25.90413 90.067572,25.93437 C89.657232,26.52657 89.270832,27.08433 88.909212,27.60765 C88.546752,28.13181 88.149432,28.68453 87.718512,29.26623 C87.285912,29.84751 86.886492,30.37503 86.518152,30.84795 C86.149392,31.32087 85.798272,31.75305 85.463532,32.14407 C85.128792,32.53635 84.825972,32.83875 84.554232,33.05337 C84.282912,33.26841 84.078372,33.37887 83.940192,33.38559 C83.690292,33.39777 83.570592,33.26967 83.579832,32.99961 C83.604192,32.35323 84.279972,30.74463 85.642452,28.18347 C87.006192,25.62231 88.381272,23.36397 89.759292,21.40803 C90.157872,20.83011 90.366192,20.39373 90.380892,20.09721 C90.401052,19.69317 90.341832,19.30551 90.202812,18.93339 C90.063372,18.56169 89.871852,18.23241 89.626992,17.94429 C89.382552,17.65701 89.090652,17.42517 88.753812,17.24877 C88.416972,17.07321 88.074672,16.99131 87.729012,17.00433 C87.183432,17.02533 86.329992,17.51631 85.179192,18.48147 C84.028392,19.44705 82.798212,20.66295 81.495372,22.13085 C80.192112,23.59959 78.920352,25.18047 77.681772,26.87307 C77.595672,26.95917 77.511252,27.00537 77.427252,27.01083 C77.315112,27.01755 77.260092,26.97135 77.262192,26.87097 C77.262612,26.84535 77.276892,26.81973 77.305872,26.79285 C78.931272,23.54709 80.645292,20.29377 82.452552,17.03499 C83.006532,16.03581 83.503812,15.15885 83.943132,14.40243 C84.408072,13.60233 84.193032,12.58089 83.445012,12.03615 L82.626852,11.44017 C81.941412,10.94163 80.973312,11.17095 80.586492,11.92527 C79.165632,14.69475 77.415912,18.16437 75.378072,22.34841 C74.966472,23.19513 74.580072,23.99859 74.213412,24.76635 C73.394412,26.08263 72.604392,27.31869 71.841672,28.47243 C70.837032,29.99115 69.796272,31.38219 68.715612,32.64639 C67.635792,33.91101 66.813432,34.57209 66.234672,34.62459 C65.821812,34.66281 65.613492,34.42551 65.609712,33.91185 C65.605512,33.34485 65.856672,32.34021 66.370332,30.90045 C66.884412,29.46153 67.540032,27.88191 68.344332,26.16411 C69.148212,24.44673 70.017192,22.72683 70.954632,21.00609 C71.011752,20.91831 71.112552,20.86875 71.255772,20.85741 C72.202452,20.75829 72.847992,20.68479 73.190292,20.63271 C73.875732,20.50209 74.470032,20.23875 74.975292,19.84059 C75.479712,19.44285 75.736752,19.06947 75.742632,18.71877 C75.747672,18.42267 75.520872,18.24837 75.063492,18.19881 C74.776632,18.19167 74.060532,18.19923 72.915192,18.22779 C72.771552,18.23871 72.700992,18.18411 72.701832,18.06483 C72.702252,18.03501 72.716532,17.98923 72.745932,17.92791 C72.933252,17.62215 73.111752,17.33445 73.280172,17.06565 C73.782492,16.26303 73.576692,15.20799 72.810612,14.65065 L72.193632,14.20125 C71.534652,13.72161 70.606032,13.91229 70.192752,14.61495 C69.588372,15.64101 68.881092,16.87875 68.076372,18.33069 C68.020092,18.49155 67.937352,18.57681 67.825632,18.58647 C66.626532,18.71499 65.776452,18.85779 65.276232,19.01025 C64.970472,19.11819 64.818852,19.31979 64.821792,19.61421 C64.823892,19.88217 64.965852,20.16399 65.246832,20.45925 C65.527392,20.75619 65.848272,20.94141 66.210732,21.01617 C66.350172,21.03087 66.420732,21.07875 66.421152,21.15813 C66.421152,21.21189 66.406452,21.25389 66.378732,21.28245 C65.366952,23.05611 64.265712,25.01163 63.083412,27.15111 C62.896092,27.49047 62.718432,27.80967 62.545392,28.11921 C62.355972,28.37541 62.154372,28.64043 61.927992,28.92519 C61.297572,29.71731 60.708732,30.25071 60.158112,30.52455 C60.129972,30.52791 60.101832,30.53043 60.074112,30.53337 C59.963232,30.54555 59.920392,30.49557 59.946432,30.38511 C59.946012,30.35823 59.958612,30.32967 59.985912,30.29943 C61.078752,27.86175 61.626012,25.78359 61.597032,24.05739 C61.576452,22.79067 61.250532,21.93219 60.616332,21.48279 C60.529812,21.41097 60.471432,21.33579 60.441612,21.25767 C59.672172,19.66167 58.452912,18.94935 56.798532,19.13079 C55.572552,19.26561 54.297012,19.95231 52.989132,21.19005 C51.680832,22.42905 50.576652,23.88015 49.676592,25.53999 C49.017192,26.75547 48.453972,28.00623 47.981892,29.28807 C47.771052,29.66565 47.532072,30.09531 47.259072,30.58881 C46.849152,31.32969 46.485852,31.99077 46.167492,32.57163 C45.849132,33.15249 45.468612,33.74973 45.025512,34.36419 C44.582832,34.97907 44.204412,35.50701 43.889832,35.94885 C43.574832,36.39027 43.248072,36.75777 42.908712,37.05261 C42.568932,37.34745 42.277032,37.51293 42.032172,37.54989 C41.760012,37.59105 41.611332,37.42305 41.586972,37.04379 C41.555472,36.56205 41.752872,35.87451 42.182952,34.98327 C42.612612,34.09119 43.027152,33.23733 43.425732,32.42001 C43.823472,31.60311 44.317812,30.59511 44.912532,29.39727 C45.507252,28.19943 45.882312,27.45267 46.030572,27.15573 C46.545912,26.46525 46.791612,25.83819 46.763052,25.27329 C46.720212,24.43875 46.235532,23.80581 45.303552,23.37741 C44.371992,22.95111 43.157772,22.61217 41.661312,22.36857 C41.460132,22.34379 41.412252,22.25601 41.516832,22.10481 C42.153132,20.89857 42.454692,19.93257 42.411012,19.20597 C42.365652,18.45291 41.957832,18.12993 41.187972,18.24249 C40.675152,18.31683 40.143432,18.55875 39.596172,18.96615 C39.048492,19.37481 38.578512,19.94223 38.185812,20.66841 C37.792692,21.39543 37.625952,22.14849 37.681812,22.92843 C37.710792,23.33163 37.819572,23.65503 38.007312,23.89737 C38.038812,23.94735 38.056452,23.99187 38.059392,24.03219 C38.062332,24.07209 38.051412,24.12207 38.027472,24.17961 C37.381932,25.72731 36.690192,26.96841 35.656572,29.04657 C35.462952,29.43549 35.679672,29.90463 36.101352,30.00837 L36.195432,30.03189 C36.893052,30.20367 37.613772,29.84457 37.897692,29.18433 C38.797752,27.09567 39.169452,26.02005 39.731412,24.81549 C39.804912,24.64119 39.897312,24.54543 40.009872,24.52863 C40.290432,24.48663 40.573092,24.46437 40.856172,24.46311 C41.139672,24.46185 41.434512,24.52653 41.740692,24.65841 C42.046452,24.79029 42.207312,24.99105 42.223692,25.25985 C42.248892,25.66347 41.975472,26.41275 41.410992,27.50769 C40.846092,28.60347 40.260192,29.75007 39.654132,30.94875 C39.048072,32.14743 38.506692,33.43851 38.029992,34.82241 C37.552872,36.20589 37.351692,37.32897 37.415952,38.19081 C37.448292,38.62047 37.547832,39.03333 37.714572,39.42771 C37.880892,39.82293 38.098452,40.16901 38.366412,40.46553 C38.633532,40.76289 38.956932,40.98297 39.335352,41.12661 C39.714192,41.27067 40.118652,41.30889 40.550412,41.24169 C41.263152,41.13081 42.021672,40.70451 42.831432,39.96195 C43.640772,39.21981 44.575272,38.08749 45.646272,36.56625 C46.070892,35.96271 46.439652,35.42091 46.776492,34.91271 C46.777752,35.01897 46.768512,35.13405 46.773552,35.23653 C46.851252,36.71787 47.338032,37.86993 48.226752,38.69775 C49.115472,39.52599 50.125992,39.86493 51.265452,39.71751 C52.404912,39.57093 53.559912,38.95983 54.742212,37.88463 C55.924092,36.80943 57.032052,35.45913 58.069032,33.83037 C58.121952,33.74343 58.231152,33.69051 58.396632,33.67245 C59.463012,33.55527 60.515112,33.01053 61.563012,32.05251 C61.741932,32.01471 61.920852,31.96641 62.099772,31.90509 C62.126652,31.87569 62.154372,31.85889 62.182092,31.85637 C62.265252,31.84755 62.307252,31.87065 62.308092,31.92441 C62.308512,31.95171 62.294652,31.99371 62.268192,32.04999 C62.006952,33.12939 61.883892,33.99249 61.893972,34.63929 C61.913292,35.82579 62.209392,36.73341 62.780172,37.36467 C63.349692,37.99593 64.069572,38.26851 64.943592,38.18535 C65.735712,38.10975 66.639972,37.62087 67.666032,36.72165 C68.474952,36.01227 69.212052,35.20965 69.910092,34.35537 C69.884052,34.42173 69.855492,34.49271 69.831972,34.55445 C69.747972,34.83165 69.706392,35.10465 69.705972,35.37387 C69.704292,36.02109 69.949992,36.55995 70.441392,36.99087 C70.933212,37.42305 71.437212,37.61751 71.958012,37.57719 C72.395232,37.54317 72.657732,37.33485 72.743832,36.95097 C74.139912,34.42005 76.096692,31.49727 78.666252,28.20531 C81.236232,24.91461 83.450472,22.45803 85.252692,20.81793 C85.340892,20.73309 85.413552,20.68983 85.471092,20.68731 C85.556772,20.68353 85.598352,20.72217 85.594992,20.80281 C85.592892,20.85741 85.576932,20.89857 85.547532,20.92587 C84.548772,22.42233 83.875512,23.46351 83.515572,24.04605 C83.156052,24.62817 82.570992,25.62567 81.768792,27.04023 C80.966592,28.45479 80.395812,29.67195 80.048472,30.68709 C79.701132,31.70307 79.518852,32.60187 79.498692,33.38349 C79.468872,34.54269 79.735992,35.42805 80.295852,36.04125 C80.856132,36.65445 81.477732,36.94257 82.165272,36.90561 C83.693232,36.82581 85.779792,34.88499 88.541712,31.14069 C88.534992,31.23099 88.523232,31.32381 88.519032,31.41327 C88.445952,32.97567 88.838652,34.21719 89.689152,35.14077 C90.539652,36.06519 91.649712,36.50535 93.029412,36.46755 C94.794252,36.41925 96.581772,35.69055 98.415492,34.28019 C100.249212,32.87067 101.921652,31.17345 103.435332,29.18139 C104.463912,27.86133 105.248472,26.80335 105.786072,26.00199 C106.818852,24.59163 108.191832,22.55547 109.937772,20.01321 C110.015472,20.01993 110.085612,20.02371 110.143572,20.02497 C110.632872,20.03841 111.117972,20.07957 111.598032,20.21901 C112.078092,20.35845 112.304472,20.63145 112.277592,21.03633 C112.251132,21.44163 111.878592,22.15353 111.167532,23.17497 C110.456052,24.19599 109.721892,25.25985 108.965052,26.36571 C108.207792,27.47241 107.492952,28.68117 106.818852,29.99115 C106.145172,31.30197 105.787752,32.41623 105.739872,33.33183 C105.709212,33.92403 105.798252,34.47255 106.007412,34.97613 C106.216572,35.48055 106.540392,35.89341 106.978872,36.21639 C107.417352,36.53937 107.926812,36.69267 108.508512,36.67755 C109.252752,36.65823 110.084352,36.34239 111.008352,35.73129 C111.931932,35.11935 112.845852,34.31589 113.750952,33.32007 C113.831592,33.23145 116.570832,29.88111 117.091212,29.10159 C117.605292,28.37037 120.636852,24.07671 122.676372,21.60753 C122.657052,21.93681 122.639832,22.34421 122.633112,22.82847 C122.615052,24.22413 123.095112,28.55433 122.914932,31.05837 C122.735172,33.56241 120.890112,34.98831 118.560372,34.87323 C117.258372,34.80939 116.464572,34.13025 116.017692,33.54309 C115.653132,33.06471 114.862692,33.24741 114.804312,33.84633 C114.783732,34.05717 114.835392,34.27473 114.962652,34.46205 C116.928252,37.35333 120.268932,37.21557 120.268932,37.21557 C120.268932,37.21557 123.986352,37.12065 125.891052,34.52505 C127.795752,31.92945 126.938952,26.31405 126.865872,23.20227 C126.816312,21.10101 128.345112,19.95147 129.343032,19.42689 C129.896172,19.13583 130.042752,18.42771 129.653832,17.94639" id="Fill-3"></path>
                <path d="M19.736178,47.945016 C16.379958,50.056776 13.583178,50.9715827 10.309698,50.9715827 C9.990498,50.9715827 7.839678,50.995056 6.282738,49.986216 C5.212158,49.293216 4.480938,48.156696 4.480938,47.124336 C4.480938,45.086496 6.043758,43.539216 8.765778,43.322076 C13.571418,42.941556 16.710078,45.066336 19.683678,47.358696 L20.117118,47.705616 L19.736178,47.945016 Z M39.847878,6.317556 C38.632818,4.325916 36.420258,2.465316 32.973318,1.627416 C29.450358,0.771456 25.644738,0.862596 22.199478,1.475796 C20.201958,1.831536 15.787338,3.064236 12.882198,5.813136 C9.751938,8.774556 8.241618,13.165656 9.926238,15.381576 C10.108098,15.621396 10.378998,15.600816 10.487358,15.582336 C10.774638,15.531096 11.016558,15.314796 11.103918,15.030456 C12.502518,10.460436 16.028838,7.336476 21.300258,5.997096 C25.588878,4.906776 29.517978,5.324676 31.202178,5.675796 C33.450438,6.145356 35.137578,7.460376 35.714658,9.265116 C36.263598,10.979136 36.294678,13.933836 32.282418,18.274536 C27.573798,23.368716 21.532098,25.542216 18.250218,26.384316 L17.612238,26.548536 L17.886498,25.949196 C18.572358,24.451056 19.248978,23.016336 19.903758,21.629496 C20.248998,20.898696 20.584578,20.187216 20.906718,19.497576 C21.025578,19.258596 21.289338,18.723096 21.617358,18.059496 C22.375878,16.521876 23.474178,14.295876 23.847978,13.558776 C24.367518,12.533136 24.123918,11.361756 23.268798,10.774596 L22.138578,9.998856 C21.758478,9.737616 21.279678,9.659076 20.821038,9.781296 C20.372058,9.901416 20.003298,10.202976 19.809258,10.608696 C19.303998,11.665416 11.526438,28.612836 10.763718,30.318876 C10.506258,30.894276 10.555818,31.550316 10.894758,32.073636 C11.456718,32.940936 12.166938,33.717936 13.004418,34.381956 C13.202658,34.539456 13.455918,34.596996 13.699518,34.535256 C13.935558,34.477296 14.127918,34.315596 14.226198,34.092576 C14.754978,32.895156 15.851598,30.436896 15.851598,30.436896 L15.972138,30.390276 C18.018378,29.597316 20.236818,29.171856 22.565298,29.124396 C25.021878,29.071476 26.792598,29.701896 27.816558,30.987096 C28.353738,31.660776 29.053038,33.033756 28.680078,34.937196 C28.372638,36.504216 27.624618,38.358936 26.643078,40.182996 C26.485998,40.478256 26.100438,41.145216 26.070198,41.196036 C25.113438,42.795816 24.051678,44.125116 22.974378,45.230136 C22.610658,44.901276 21.532518,43.946616 20.055798,42.823956 C18.597138,41.713896 15.984738,40.151496 13.767558,39.437916 C11.772138,38.795316 10.231998,38.477796 7.753998,38.691156 C3.791718,39.032196 0.606438,41.537076 0.060018,45.576216 C-0.332682,48.481356 1.193598,52.161396 4.861878,53.839296 C6.098358,54.352536 7.858158,54.915756 9.954798,55.044696 C12.356358,55.192536 15.247218,54.798576 17.917998,54.075756 C20.390118,53.406696 22.698018,52.008096 24.388938,50.971116 L24.389778,50.971116 C25.310838,50.364216 26.315058,49.563696 27.515838,48.472116 C28.042098,47.917296 28.520898,47.385576 28.878738,46.980696 C29.363418,46.432176 29.820798,45.860556 30.237438,45.258696 C32.516778,41.969256 33.436998,38.750796 33.714198,37.564716 C34.708758,33.317256 33.272778,28.359156 28.709898,26.580456 L28.071918,26.331816 L28.676718,26.010096 C29.340318,25.657716 29.934198,25.311216 30.492378,24.950856 C37.810038,20.228376 39.619398,16.218216 40.391778,14.505876 C40.958358,13.249656 41.865978,9.467976 39.847878,6.317556 L39.847878,6.317556 Z" id="Fill-5"></path>
                <path d="M38.4762,42.84021 C38.4678,42.83181 38.4594,42.82383 38.451,42.81501 C38.1192,42.48363 37.68114,42.28287 37.2729,42.16149 C36.64332,41.97417 35.97132,42.26397 35.67942,42.85197 C34.9335,44.35557 33.23796,47.34597 31.101,48.49593 C30.35676,48.89619 29.52432,48.94701 28.71372,48.79833 C28.14,48.69291 27.59778,48.45855 27.09546,48.16119 C25.9077,47.45769 24.72918,46.68321 24.29574,46.32327 C23.38812,45.56853 20.65938,48.11415 20.7081,48.15363 C21.66654,48.93021 21.87108,49.07679 23.88918,50.66019 C24.26676,50.95671 24.68508,51.20619 25.1265,51.39519 C31.00986,53.91939 35.63952,51.21249 37.9134,48.48879 C38.55012,47.72691 38.94744,46.97175 39.19524,46.32117 C39.65262,45.12165 39.3792,43.75287 38.4762,42.84021" id="Fill-8"></path>
                <polygon id="Fill-10" points="75.058032 0.574224 74.930772 1.601544 71.095332 1.923684 70.847532 3.927084 73.875312 3.671724 73.737552 4.700304 70.709772 4.954824 70.321692 8.073324 69.210792 8.166984 70.112112 0.989604"></polygon>
                <polygon id="Fill-12" points="84.72093 0.02625 84.55335 1.05021 82.43151 1.16025 81.46005 7.30611 80.34873 7.36365 81.31977 1.21821 79.19835 1.32825 79.36593 0.30429"></polygon>
                <polygon id="Fill-14" points="94.985898 5.501622 97.956138 0.042462 99.133818 0.088242 95.198418 7.175742 94.104318 7.162302 93.583098 1.786722 90.661158 7.119882 89.526738 7.105602 88.783338 0.005502 89.916498 4.2e-05 90.428478 5.445342 93.375618 0.012222 94.472238 0.037002"></polygon>
                <path d="M103.58607,4.369386 L105.91287,4.480266 L105.51639,1.520526 L103.58607,4.369386 Z M105.25263,0.240366 L106.36731,0.305046 L107.46519,7.485786 L106.33245,7.432026 L106.05777,5.500866 L102.92121,5.351766 L101.67885,7.169106 L100.48101,7.117446 L105.25263,0.240366 Z" id="Fill-16"></path>
                <path d="M115.235316,4.32285 C115.403316,4.33587 115.576356,4.31613 115.752336,4.26531 C115.928736,4.21365 116.088756,4.13427 116.232396,4.02675 C116.376036,3.91881 116.496156,3.78567 116.591916,3.62691 C116.688936,3.46773 116.744376,3.29091 116.758656,3.09561 C116.768736,2.96121 116.752776,2.83269 116.711196,2.71131 C116.669196,2.58951 116.609556,2.48031 116.532696,2.38329 C116.454996,2.28627 116.357976,2.20605 116.240796,2.14305 C116.123196,2.07963 115.994256,2.04309 115.852716,2.03259 L114.024036,1.89693 L113.356236,4.18341 L115.235316,4.32285 Z M113.197896,0.81921 L116.036676,1.03089 C116.319756,1.05189 116.580156,1.12161 116.818716,1.24131 C117.056436,1.36059 117.258876,1.51263 117.426876,1.69785 C117.593616,1.88307 117.719616,2.09097 117.803196,2.32029 C117.886356,2.55003 117.919536,2.78943 117.901056,3.03807 C117.877116,3.35517 117.808236,3.63069 117.693156,3.86589 C117.578496,4.10151 117.444516,4.30311 117.290796,4.47111 C117.137076,4.63869 116.972436,4.77561 116.796036,4.88103 C116.618796,4.98645 116.459196,5.06751 116.316396,5.12463 C116.172756,5.18175 116.055156,5.22249 115.961916,5.24559 C115.868676,5.26911 115.828776,5.28087 115.842216,5.28213 L116.631816,8.18517 L115.450356,8.09697 L114.733836,5.30145 L113.066856,5.17755 L112.288176,7.86219 L111.177696,7.77945 L113.197896,0.81921 Z" id="Fill-18"></path>
                <polygon id="Fill-20" points="126.28329 8.027964 125.97249 9.014964 120.88167 8.513484 123.06903 1.604484 128.05905 2.095884 127.74741 3.082884 123.86661 2.700264 123.28995 4.526844 126.36393 4.829664 126.04347 5.815824 122.96823 5.513004 122.30169 7.635264"></polygon>
                <path d="M51.86328,9.570792 C52.04472,9.549792 52.2228,9.505692 52.39878,9.438072 C52.57476,9.370452 52.73058,9.279732 52.8675,9.165072 C53.00358,9.051672 53.11026,8.913492 53.1867,8.751792 C53.26356,8.589672 53.2896,8.401932 53.26524,8.186892 C53.24214,7.985712 53.14596,7.828632 52.97628,7.715232 C52.80702,7.602252 52.60248,7.506492 52.36266,7.428792 C52.12242,7.350672 51.86076,7.277172 51.57768,7.207452 C51.2946,7.138152 51.03042,7.044492 50.78598,6.926052 C50.54112,6.808032 50.32986,6.653892 50.15178,6.463632 C49.9737,6.273372 49.86576,6.013812 49.82796,5.684952 C49.79184,5.369952 49.812,5.073432 49.88802,4.796232 C49.96446,4.519032 50.09718,4.271232 50.28786,4.051992 C50.47812,3.833172 50.72634,3.651732 51.0321,3.508092 C51.33828,3.364452 51.70242,3.267852 52.12536,3.219552 C52.48068,3.178812 52.79484,3.190572 53.067,3.254412 C53.33958,3.318672 53.57268,3.397212 53.76672,3.490452 C53.99016,3.600912 54.18882,3.731112 54.36228,3.881052 L53.60628,4.671072 C53.50002,4.574472 53.37528,4.490052 53.2308,4.418232 C53.10858,4.357752 52.95318,4.305672 52.7646,4.262832 C52.57602,4.219992 52.36434,4.212012 52.12998,4.238892 C51.90822,4.264092 51.72006,4.314492 51.56592,4.390092 C51.41178,4.465272 51.2841,4.554732 51.18414,4.658052 C51.08334,4.761372 51.01362,4.876452 50.9733,5.003292 C50.9334,5.130132 50.92122,5.257392 50.9355,5.384652 C50.9586,5.586252 51.05478,5.745012 51.22446,5.861352 C51.39456,5.978112 51.59868,6.073452 51.8385,6.148212 C52.07832,6.222552 52.33998,6.296472 52.6239,6.368712 C52.90698,6.442212 53.17116,6.535452 53.41476,6.650532 C53.6592,6.765192 53.87088,6.921012 54.0498,7.117992 C54.22914,7.315392 54.33708,7.574532 54.37404,7.896672 C54.4152,8.259132 54.39084,8.593452 54.3018,8.899212 C54.21192,9.204972 54.06072,9.474192 53.8482,9.705192 C53.63526,9.937452 53.361,10.129812 53.02584,10.283532 C52.69026,10.437672 52.29756,10.540992 51.84816,10.592652 C51.4185,10.641372 51.04176,10.626672 50.71668,10.548132 C50.3916,10.470012 50.12028,10.371732 49.90272,10.254132 C49.64316,10.120992 49.42056,9.959712 49.23576,9.769872 L49.99134,8.979852 C50.11566,9.115092 50.27148,9.233112 50.46006,9.334332 C50.61924,9.417492 50.81244,9.487212 51.03966,9.543072 C51.26646,9.598092 51.54156,9.607752 51.86328,9.570792" id="Fill-22"></path>
                <path d="M59.357256,5.384316 C59.295936,5.761476 59.301396,6.118056 59.373216,6.453216 C59.445036,6.788796 59.571876,7.084056 59.754996,7.338576 C59.937696,7.593516 60.167016,7.794696 60.442956,7.942956 C60.718056,8.092056 61.025916,8.171016 61.364856,8.181096 C61.704216,8.191176 62.034336,8.131116 62.355636,7.999656 C62.676096,7.868616 62.968416,7.682976 63.232176,7.441056 C63.495096,7.199976 63.716436,6.914796 63.896196,6.586776 C64.075116,6.258756 64.195656,5.905956 64.256556,5.528796 C64.318296,5.151636 64.312836,4.795056 64.241016,4.459476 C64.169196,4.123896 64.041516,3.829056 63.859236,3.574536 C63.675696,3.319596 63.446376,3.117996 63.171276,2.969316 C62.895336,2.821056 62.587476,2.742096 62.248536,2.732436 C61.909176,2.722356 61.579056,2.782416 61.258176,2.913036 C60.937716,3.044076 60.644976,3.230556 60.381636,3.472056 C60.118296,3.713136 59.897376,3.997896 59.718036,4.325916 C59.538696,4.654356 59.418576,5.007156 59.357256,5.384316 M58.320696,5.354076 C58.405536,4.829916 58.574796,4.341876 58.827636,3.889536 C59.081316,3.437196 59.390856,3.044076 59.757516,2.711016 C60.124176,2.378376 60.534936,2.120496 60.991056,1.936956 C61.446756,1.753836 61.922196,1.669416 62.418636,1.684116 C62.915076,1.698816 63.359016,1.810116 63.751716,2.018436 C64.143576,2.226756 64.467396,2.506056 64.722756,2.857596 C64.978956,3.208716 65.158716,3.616536 65.263296,4.079376 C65.368296,4.541796 65.378376,5.035296 65.293536,5.559456 C65.208696,6.083196 65.039016,6.571656 64.785756,7.023576 C64.532496,7.475916 64.222956,7.868616 63.856296,8.202096 C63.490056,8.535156 63.078876,8.793456 62.623176,8.976156 C62.167056,9.158856 61.691616,9.243696 61.194756,9.228996 C60.698736,9.214296 60.254796,9.102996 59.862096,8.894676 C59.470236,8.686776 59.146416,8.407056 58.890636,8.055516 C58.635276,7.703976 58.455516,7.296576 58.350516,6.834156 C58.245936,6.371316 58.235856,5.877396 58.320696,5.354076" id="Fill-24"></path>
            </g>
        </g>
    </g>
</svg>